# xmcd
#
# Track frame offsets: 
#        150
#        17351
#        36685
#        54156
#        76688
#        94939
#        110600
#        129156
#        145824
#        164889
#
# Disc length: 2435 seconds
#
# Revision: 0
# Processed by: cddbd v1.5.2PL0 Copyright (c) Steve Scherf et al.
# Submitted via: ExactAudioCopy v0.99pb5
#
DISCID=7d09810a
DTITLE=Beth McKee - I'm That Way
DYEAR=2010
DGENRE=Blues
TTITLE0=I Spent All My Money Lovin You
TTITLE1=But I Do
TTITLE2=See You Later Alligator
TTITLE3=Tennessee Blues
TTITLE4=Small Town Talk
TTITLE5=I'm That Way
TTITLE6=Walking To New Orleans
TTITLE7=I Don't Want To Know
TTITLE8=Last Train To memphis
TTITLE9=I Don't See Me
EXTD=
EXTT0=
EXTT1=
EXTT2=
EXTT3=
EXTT4=
EXTT5=
EXTT6=
EXTT7=
EXTT8=
EXTT9=
PLAYORDER=
